<svg width="89" height="89" viewBox="0 0 89 89" fill="none" xmlns="http://www.w3.org/2000/svg">
<g id="Dark_logo">
<path id="Vector" d="M75.4698 1.63184H13.9979C7.20365 1.63184 1.6958 7.13969 1.6958 13.934V75.4058C1.6958 82.2001 7.20365 87.708 13.9979 87.708H75.4698C82.2641 87.708 87.7719 82.2001 87.7719 75.4058V13.934C87.7719 7.13969 82.2641 1.63184 75.4698 1.63184Z" stroke="#383F41" stroke-width="2" stroke-miterlimit="10"/>
<path id="Vector_2" d="M13.9971 87.7079L22.679 71.9794H63.3605C63.3605 71.9794 70.334 72.6133 74.3098 67.9892C76.8146 65.0758 76.9644 61.4168 77.0034 59.5766C77.1792 51.3054 77.269 34.3646 76.8795 12.0736L83.9491 5.12817C84.9687 6.25528 85.8437 7.50522 86.5537 8.84903C89.8204 15.0463 88.5444 21.4278 87.9181 23.8564L87.7939 55.1116L87.4218 71.3594L87.546 76.0723L86.9258 78.9251L85.3135 82.3978L82.8328 85.8707L78.8639 87.607L72.9105 87.8551L57.2829 88.1032L33.5936 87.7312L13.9971 87.7079Z" fill="#383F41"/>
<path id="Vector_3" d="M16.6854 71.3556C16.6854 71.3556 12.2524 71.9107 12.2524 66.1738V14.7262C12.2524 14.7262 12.2524 10.0984 16.6854 10.0984H74.8448L70.4119 11.7639H17.2168C17.2168 11.7639 13.8478 11.7639 13.8478 15.2801V66.3585C13.8478 66.3585 14.3796 70.8 16.6854 71.3556Z" fill="#383F41"/>
<path id="Vector_4" d="M47.0518 53.9035V30.0376H43.3379V53.9035H47.0518Z" fill="#383F41"/>
<path id="Vector_5" d="M53.7259 27.8608H36.6665V31.5747H53.7259V27.8608Z" fill="#383F41"/>
</g>
</svg>
